<?xml version="1.0" standalone="no"?>
<!DOCTYPE svg PUBLIC "-//W3C//DTD SVG 20010904//EN"
 "http://www.w3.org/TR/2001/REC-SVG-20010904/DTD/svg10.dtd">
<svg version="1.0" xmlns="http://www.w3.org/2000/svg"
 width="800.000000pt" height="800.000000pt" viewBox="0 0 800.000000 800.000000"
 preserveAspectRatio="xMidYMid meet">
<metadata>
Created by potrace 1.11, written by Peter Selinger 2001-2013
</metadata>
<g transform="translate(0.000000,800.000000) scale(0.100000,-0.100000)"
fill="#000000" stroke="none">
<path d="M6265 6891 c-286 -114 -1559 -623 -2830 -1130 -2160 -862 -2312 -924
-2343 -959 -20 -23 -235 -444 -564 -1107 -501 -1011 -530 -1072 -525 -1113 5
-46 33 -84 79 -108 15 -8 348 -80 740 -160 1401 -285 2216 -452 3128 -638 256
-52 787 -161 1180 -241 393 -80 933 -191 1200 -245 267 -54 706 -144 976 -199
270 -56 508 -101 530 -101 54 0 113 36 137 84 l21 39 -97 576 c-91 543 -202
1200 -572 3396 -86 512 -197 1171 -246 1465 -52 309 -97 550 -107 569 -25 52
-63 74 -129 78 -55 3 -83 -7 -578 -206z m296 -248 c-56 -182 -864 -2739 -867
-2742 -2 -2 -86 -21 -186 -42 -101 -21 -538 -112 -973 -204 -434 -91 -797
-165 -806 -165 -16 0 -2141 1180 -2162 1200 -7 6 4978 2008 5005 2010 3 0 -2
-26 -11 -57z m428 -1603 c112 -663 233 -1387 271 -1610 38 -223 118 -702 179
-1065 62 -362 110 -665 109 -671 -2 -7 -351 465 -776 1048 l-773 1060 388
1228 c213 676 390 1226 394 1222 3 -4 97 -549 208 -1212z m-4768 -1056 c508
-283 952 -531 987 -551 35 -19 62 -37 59 -39 -3 -3 -1790 -378 -2617 -549 -96
-20 -183 -38 -192 -41 -22 -6 9 57 476 999 190 383 350 697 354 697 5 0 424
-232 933 -516z m4298 -1422 c804 -1102 779 -1068 765 -1060 -5 3 -391 218
-859 478 -467 260 -1149 639 -1515 843 -366 203 -693 385 -727 404 -35 19 -63
38 -63 42 0 9 1578 340 1612 338 23 -2 124 -136 787 -1045z m-1649 -54 c657
-366 1384 -770 1615 -898 231 -128 424 -236 428 -240 5 -4 -189 33 -430 82
-1216 248 -2273 463 -4013 819 -613 125 -931 190 -1429 292 -107 21 -148 33
-135 39 10 4 539 116 1174 248 635 133 1247 261 1360 285 113 24 212 42 220
41 8 -2 553 -302 1210 -668z"/>
</g>
</svg>
