<?xml version="1.0" encoding="UTF-8"?>
<svg xmlns="http://www.w3.org/2000/svg" xmlns:xlink="http://www.w3.org/1999/xlink" width="15pt" height="15pt" viewBox="0 0 15 15" version="1.1">
<g id="surface1">
<path style=" stroke:none;fill-rule:nonzero;fill:rgb(0%,0%,0%);fill-opacity:1;" d="M 3.367188 0.046875 C 3.230469 0.105469 3.0625 0.300781 3.023438 0.453125 C 3.003906 0.523438 2.988281 0.71875 2.988281 0.886719 L 2.988281 1.195312 L 2.050781 1.195312 C 0.894531 1.199219 0.804688 1.222656 0.660156 1.542969 C 0.601562 1.667969 0.597656 1.929688 0.597656 7.792969 C 0.597656 13.222656 0.605469 13.921875 0.648438 14.027344 C 0.71875 14.195312 0.785156 14.265625 0.945312 14.339844 C 1.070312 14.398438 1.339844 14.402344 7.492188 14.402344 C 13.191406 14.402344 13.921875 14.394531 14.027344 14.351562 C 14.195312 14.28125 14.265625 14.214844 14.339844 14.054688 C 14.398438 13.929688 14.402344 13.667969 14.402344 7.796875 C 14.402344 1.929688 14.398438 1.667969 14.339844 1.542969 C 14.195312 1.222656 14.105469 1.199219 12.953125 1.195312 L 12.011719 1.195312 L 12.011719 0.886719 C 12.011719 0.511719 11.972656 0.363281 11.835938 0.210938 C 11.679688 0.03125 11.574219 0 11.101562 0 C 10.625 0 10.523438 0.03125 10.363281 0.210938 C 10.226562 0.363281 10.1875 0.511719 10.1875 0.886719 L 10.1875 1.195312 L 4.8125 1.195312 L 4.8125 0.886719 C 4.8125 0.71875 4.796875 0.523438 4.777344 0.453125 C 4.730469 0.296875 4.566406 0.101562 4.421875 0.046875 C 4.277344 -0.015625 3.507812 -0.0117188 3.367188 0.046875 Z M 4.214844 1.492188 L 4.214844 2.390625 L 3.585938 2.390625 L 3.585938 1.515625 C 3.585938 1.035156 3.59375 0.628906 3.605469 0.621094 C 3.617188 0.605469 3.761719 0.597656 3.921875 0.597656 L 4.214844 0.597656 Z M 11.410156 1.5 L 11.414062 2.390625 L 10.785156 2.390625 L 10.785156 0.59375 L 11.09375 0.605469 L 11.398438 0.613281 Z M 2.988281 2.097656 C 2.988281 2.582031 3.074219 2.792969 3.320312 2.921875 C 3.429688 2.976562 3.515625 2.988281 3.898438 2.988281 C 4.285156 2.988281 4.371094 2.976562 4.480469 2.921875 C 4.726562 2.792969 4.8125 2.582031 4.8125 2.097656 L 4.8125 1.792969 L 10.179688 1.792969 L 10.195312 2.191406 C 10.207031 2.566406 10.214844 2.59375 10.308594 2.722656 C 10.46875 2.953125 10.5625 2.988281 11.09375 2.988281 C 11.484375 2.988281 11.570312 2.976562 11.679688 2.921875 C 11.925781 2.792969 12.011719 2.582031 12.011719 2.097656 L 12.011719 1.792969 L 13.804688 1.792969 L 13.796875 2.84375 L 13.789062 3.898438 L 1.210938 3.898438 L 1.203125 2.84375 L 1.195312 1.792969 L 2.988281 1.792969 Z M 13.804688 9.160156 L 13.804688 13.804688 L 1.195312 13.804688 L 1.195312 4.511719 L 13.804688 4.511719 Z M 13.804688 9.160156 "/>
<path style=" stroke:none;fill-rule:nonzero;fill:rgb(0%,0%,0%);fill-opacity:1;" d="M 2.992188 9.148438 L 3.003906 12.59375 L 11.996094 12.59375 L 12.007812 9.148438 L 12.011719 5.707031 L 2.988281 5.707031 Z M 5.109375 7.050781 L 5.109375 7.796875 L 3.585938 7.796875 L 3.585938 6.304688 L 5.109375 6.304688 Z M 7.203125 7.050781 L 7.203125 7.796875 L 5.707031 7.796875 L 5.707031 6.304688 L 7.203125 6.304688 Z M 9.292969 7.050781 L 9.292969 7.796875 L 7.796875 7.796875 L 7.796875 6.304688 L 9.292969 6.304688 Z M 11.414062 7.050781 L 11.414062 7.796875 L 9.890625 7.796875 L 9.890625 6.304688 L 11.414062 6.304688 Z M 5.109375 9.144531 L 5.109375 9.890625 L 3.585938 9.890625 L 3.585938 9.164062 C 3.585938 8.769531 3.59375 8.429688 3.605469 8.417969 C 3.617188 8.40625 3.960938 8.394531 4.371094 8.394531 L 5.109375 8.394531 Z M 7.203125 9.144531 L 7.203125 9.890625 L 5.707031 9.890625 L 5.707031 8.394531 L 7.203125 8.394531 Z M 9.292969 9.144531 L 9.292969 9.890625 L 7.796875 9.890625 L 7.796875 8.394531 L 9.292969 8.394531 Z M 11.410156 9.148438 L 11.414062 9.890625 L 9.890625 9.890625 L 9.890625 8.394531 L 10.644531 8.402344 L 11.398438 8.414062 Z M 5.09375 11.25 L 5.09375 11.996094 L 3.601562 11.996094 L 3.589844 11.28125 C 3.585938 10.890625 3.589844 10.554688 3.601562 10.53125 C 3.609375 10.492188 3.773438 10.488281 4.355469 10.492188 L 5.09375 10.503906 Z M 7.203125 11.25 L 7.203125 12.011719 L 5.707031 12.011719 L 5.707031 10.488281 L 7.203125 10.488281 Z M 9.292969 11.25 L 9.292969 12.011719 L 7.796875 12.011719 L 7.796875 10.488281 L 9.292969 10.488281 Z M 11.398438 11.25 L 11.398438 11.996094 L 9.90625 11.996094 L 9.894531 11.28125 C 9.894531 10.890625 9.894531 10.554688 9.90625 10.53125 C 9.914062 10.492188 10.078125 10.488281 10.660156 10.492188 L 11.398438 10.503906 Z M 11.398438 11.25 "/>
</g>
</svg>
