<?xml version="1.0" encoding="UTF-8"?>
<svg xmlns="http://www.w3.org/2000/svg" xmlns:xlink="http://www.w3.org/1999/xlink" width="15pt" height="15pt" viewBox="0 0 15 15" version="1.1">
<g id="surface1">
<path style=" stroke:none;fill-rule:nonzero;fill:rgb(0%,0%,0%);fill-opacity:1;" d="M 6.917969 1.03125 C 6.550781 1.085938 6.191406 1.199219 5.875 1.351562 C 5.613281 1.480469 5.507812 1.554688 5.273438 1.792969 C 5.027344 2.03125 4.964844 2.121094 4.835938 2.390625 C 4.621094 2.84375 4.578125 3.046875 4.554688 3.671875 C 4.539062 4.226562 4.566406 4.546875 4.683594 5.121094 L 4.75 5.445312 L 4.644531 5.660156 C 4.550781 5.847656 4.535156 5.910156 4.539062 6.117188 C 4.542969 6.53125 4.734375 7.003906 4.9375 7.109375 C 5 7.136719 5.054688 7.167969 5.0625 7.175781 C 5.070312 7.183594 5.113281 7.332031 5.15625 7.503906 C 5.25 7.867188 5.460938 8.304688 5.632812 8.5 L 5.75 8.632812 L 5.734375 9.136719 C 5.714844 9.71875 5.699219 9.769531 5.449219 9.996094 C 5.230469 10.1875 5.023438 10.296875 4.230469 10.621094 C 2.710938 11.238281 2.148438 11.65625 1.777344 12.429688 C 1.597656 12.792969 1.53125 13.0625 1.503906 13.480469 L 1.484375 13.804688 L 13.515625 13.804688 L 13.496094 13.484375 C 13.46875 13.046875 13.402344 12.792969 13.203125 12.386719 C 13.070312 12.101562 13 12.003906 12.765625 11.769531 C 12.320312 11.3125 11.914062 11.078125 10.734375 10.601562 C 9.84375 10.246094 9.539062 10.070312 9.351562 9.808594 L 9.257812 9.679688 L 9.257812 8.59375 L 9.382812 8.4375 C 9.542969 8.226562 9.707031 7.867188 9.8125 7.484375 C 9.898438 7.183594 9.910156 7.167969 10.011719 7.132812 C 10.234375 7.058594 10.429688 6.601562 10.433594 6.140625 C 10.4375 5.886719 10.398438 5.738281 10.28125 5.570312 C 10.246094 5.515625 10.222656 5.460938 10.234375 5.445312 C 10.28125 5.375 10.429688 4.707031 10.46875 4.386719 C 10.589844 3.507812 10.472656 2.792969 10.136719 2.28125 C 9.945312 2 9.652344 1.785156 9.289062 1.660156 C 9.101562 1.59375 8.980469 1.527344 8.875 1.425781 C 8.488281 1.070312 7.71875 0.914062 6.917969 1.03125 Z M 8.117188 1.671875 C 8.339844 1.742188 8.492188 1.847656 8.59375 2 C 8.652344 2.09375 8.695312 2.125 8.765625 2.125 C 8.8125 2.125 8.949219 2.152344 9.070312 2.191406 C 9.734375 2.394531 10.027344 3.164062 9.875 4.300781 C 9.824219 4.703125 9.71875 5.160156 9.597656 5.507812 L 9.535156 5.691406 L 9.652344 5.757812 C 9.820312 5.855469 9.871094 6.011719 9.820312 6.292969 C 9.765625 6.589844 9.675781 6.71875 9.5 6.730469 C 9.363281 6.738281 9.363281 6.738281 9.34375 6.894531 C 9.269531 7.40625 8.988281 8.050781 8.757812 8.238281 L 8.621094 8.347656 L 8.644531 9.339844 L 8.097656 9.648438 C 7.796875 9.816406 7.527344 9.953125 7.5 9.953125 C 7.472656 9.953125 7.203125 9.816406 6.902344 9.648438 L 6.355469 9.339844 L 6.34375 8.835938 L 6.335938 8.335938 L 6.226562 8.253906 C 5.945312 8.039062 5.722656 7.515625 5.625 6.859375 C 5.605469 6.746094 5.597656 6.738281 5.492188 6.738281 C 5.417969 6.738281 5.355469 6.710938 5.308594 6.664062 C 5.222656 6.570312 5.144531 6.304688 5.144531 6.117188 C 5.144531 5.976562 5.21875 5.773438 5.269531 5.773438 C 5.28125 5.773438 5.320312 5.75 5.351562 5.726562 C 5.410156 5.683594 5.40625 5.667969 5.328125 5.335938 C 5.179688 4.707031 5.132812 4.28125 5.152344 3.71875 C 5.167969 3.3125 5.183594 3.152344 5.242188 2.96875 C 5.355469 2.613281 5.5 2.371094 5.726562 2.15625 C 6.03125 1.871094 6.398438 1.714844 6.957031 1.625 C 7.238281 1.582031 7.914062 1.609375 8.117188 1.671875 Z M 6.960938 10.371094 C 6.96875 10.378906 6.824219 10.574219 6.636719 10.800781 C 6.453125 11.035156 6.285156 11.210938 6.273438 11.195312 C 6.257812 11.179688 6.132812 11.03125 5.992188 10.863281 L 5.742188 10.554688 L 5.910156 10.398438 C 6.003906 10.3125 6.117188 10.179688 6.160156 10.101562 L 6.242188 9.960938 L 6.597656 10.15625 C 6.789062 10.269531 6.957031 10.363281 6.960938 10.371094 Z M 8.808594 10.078125 C 8.835938 10.132812 8.945312 10.257812 9.054688 10.363281 L 9.257812 10.554688 L 9.007812 10.863281 C 8.867188 11.03125 8.742188 11.179688 8.726562 11.195312 C 8.714844 11.210938 8.546875 11.035156 8.363281 10.800781 C 8.175781 10.574219 8.03125 10.378906 8.039062 10.367188 C 8.066406 10.339844 8.710938 9.988281 8.734375 9.988281 C 8.746094 9.988281 8.78125 10.027344 8.808594 10.078125 Z M 5.675781 11.414062 C 6.144531 11.980469 6.230469 12.046875 6.40625 11.96875 C 6.457031 11.945312 6.636719 11.761719 6.8125 11.542969 L 7.125 11.152344 L 7.351562 11.339844 L 7.261719 11.503906 C 7.046875 11.898438 6.789062 12.605469 6.703125 13.015625 L 6.667969 13.207031 L 4.425781 13.207031 C 2.199219 13.207031 2.191406 13.207031 2.191406 13.140625 C 2.191406 13.035156 2.320312 12.675781 2.414062 12.511719 C 2.621094 12.152344 3.082031 11.785156 3.664062 11.511719 C 3.8125 11.445312 4.179688 11.285156 4.480469 11.167969 C 4.78125 11.042969 5.0625 10.925781 5.109375 10.902344 C 5.15625 10.878906 5.203125 10.863281 5.21875 10.871094 C 5.230469 10.882812 5.4375 11.125 5.675781 11.414062 Z M 10.5625 11.179688 C 10.917969 11.328125 11.320312 11.5 11.453125 11.566406 C 11.988281 11.835938 12.386719 12.164062 12.574219 12.492188 C 12.679688 12.675781 12.808594 13.035156 12.808594 13.140625 C 12.808594 13.207031 12.800781 13.207031 10.578125 13.207031 L 8.339844 13.207031 L 8.25 12.84375 C 8.15625 12.464844 7.953125 11.921875 7.765625 11.546875 L 7.660156 11.335938 L 7.765625 11.246094 L 7.875 11.152344 L 8.1875 11.542969 C 8.363281 11.761719 8.542969 11.945312 8.59375 11.96875 C 8.769531 12.046875 8.855469 11.984375 9.339844 11.394531 C 9.734375 10.917969 9.800781 10.855469 9.851562 10.886719 C 9.890625 10.902344 10.207031 11.035156 10.5625 11.179688 Z M 10.5625 11.179688 "/>
</g>
</svg>
